<svg width="80" height="80" viewBox="0 0 80 80" fill="none" xmlns="http://www.w3.org/2000/svg">
<path d="M14.755 68.0025L9.14001 5H70.86L65.2375 67.9925L39.9625 75L14.755 68.0025Z" fill="#1572B6"/>
<path d="M40 69.6449L60.425 63.9824L65.23 10.1524H40V69.6449Z" fill="#33A9DC"/>
<path d="M40 32.9775H50.225L50.93 25.065H40V17.3375H59.375L59.19 19.41L57.2925 40.705H40V32.9775V32.9775Z" fill="white"/>
<path d="M40.0475 53.0451L40.0125 53.0551L31.4075 50.7301L30.8575 44.5676H23.1L24.1825 56.7001L40.01 61.0951L40.0475 61.0851V53.0451V53.0451Z" fill="#EBEBEB"/>
<path d="M49.5676 40.3775L48.6376 50.725L40.0201 53.05V61.09L55.8601 56.7L55.9776 55.395L57.3201 40.3775H49.5676V40.3775Z" fill="white"/>
<path d="M40.0277 17.3375V25.065H21.3627L21.2077 23.3275L20.8552 19.41L20.6702 17.3375H40.0277V17.3375Z" fill="#EBEBEB"/>
<path d="M39.9999 32.9774V40.7049H31.5024L31.3474 38.9674L30.9974 35.0499L30.8124 32.9774H39.9999V32.9774Z" fill="#EBEBEB"/>
</svg>


