<svg width="75" height="75" viewBox="0 0 75 75" fill="none" xmlns="http://www.w3.org/2000/svg">
<path d="M66.7969 0H8.20312C3.67266 0 0 3.67266 0 8.20312V66.7969C0 71.3273 3.67266 75 8.20312 75H66.7969C71.3273 75 75 71.3273 75 66.7969V8.20312C75 3.67266 71.3273 0 66.7969 0Z" fill="#203647"/>
<path d="M54.6028 27.5972V46.9993C54.6028 53.6849 54.1136 56.8911 52.6464 59.6629C51.2873 62.3266 49.4937 64.0111 45.7982 65.8592L38.0258 62.1634C41.7219 60.4243 43.5154 58.9026 44.6565 56.5647C45.8524 54.1738 46.2333 51.4018 46.2333 44.1191V27.5972H54.6028ZM41.2877 14.6714V53.4133C36.9942 54.2283 33.8419 54.5544 30.4179 54.5544C20.2001 54.5544 14.8739 49.9352 14.8739 41.0758C14.8739 32.5428 20.5264 26.9995 29.2762 26.9995C30.635 26.9995 31.6677 27.1079 32.9178 27.434V14.672H41.288L41.2877 14.6714ZM30.0919 33.7384C25.8526 33.7384 23.4066 36.3473 23.4066 40.9123C23.4066 45.3695 25.7439 47.8149 30.0377 47.8149C30.9611 47.8149 31.7222 47.7607 32.9178 47.5981V34.1729C31.9396 33.8471 31.1246 33.7384 30.0919 33.7384ZM54.6028 14.7159V23.3034H46.2333V14.7162H54.6028V14.7159Z" fill="#FFFFFD"/>
</svg>
