<svg width="83" height="83" viewBox="0 0 83 83" fill="none" xmlns="http://www.w3.org/2000/svg">
<path d="M15.3084 70.5526L9.48022 5.1875H73.5199L67.684 70.5422L41.4612 77.8125L15.3084 70.5526Z" fill="#E44F26"/>
<path d="M41.5 72.2566L62.6909 66.3818L67.6761 10.5332H41.5V72.2566Z" fill="#F1662A"/>
<path d="M41.5 34.7744H30.8916L30.1601 26.5652H41.5V18.5479H21.3984L21.5904 20.7007L23.559 42.7917H41.5V34.7744Z" fill="#EBEBEB"/>
<path d="M41.4999 55.5944L41.4636 55.6048L32.5359 53.1952L31.9653 46.8016H23.9169L25.04 59.3865L41.4636 63.9463L41.4999 63.9359V55.5944Z" fill="#EBEBEB"/>
<path d="M41.4714 34.7744V42.7916H51.3432L50.4147 53.19L41.4714 55.6022V63.9437L57.908 59.3864L58.0273 58.0325L59.9104 36.9272L60.1075 34.7744H41.4714Z" fill="white"/>
<path d="M41.4714 18.5479V26.5652H60.8364L60.9972 24.7651L61.3629 20.7007L61.5548 18.5479H41.4714Z" fill="white"/>
</svg>
