<svg width="78" height="78" viewBox="0 0 78 78" fill="none" xmlns="http://www.w3.org/2000/svg">
<path d="M0 0H78V78H0V0Z" fill="#F7DF1E"/>
<path d="M20.509 65.1824L26.4779 61.57C27.6296 63.6117 28.6771 65.3393 31.1899 65.3393C33.5984 65.3393 35.1173 64.3972 35.1173 60.7324V35.8096H42.4471V60.836C42.4471 68.4279 37.9969 71.8837 31.504 71.8837C25.6403 71.8837 22.2366 68.8468 20.5087 65.1817" fill="#203647"/>
<path d="M46.4285 64.3969L52.3967 60.9414C53.968 63.5072 56.01 65.392 59.6224 65.392C62.6598 65.392 64.5964 63.8734 64.5964 61.779C64.5964 59.2659 62.6068 58.3756 59.2559 56.9101L57.4238 56.124C52.1353 53.8733 48.6275 51.0458 48.6275 45.0769C48.6275 39.5792 52.816 35.3903 59.361 35.3903C64.0209 35.3903 67.3718 37.0137 69.7801 41.2546L64.0727 44.92C62.8158 42.6687 61.4551 41.7787 59.3607 41.7787C57.2139 41.7787 55.8525 43.14 55.8525 44.92C55.8525 47.119 57.2139 48.0096 60.3552 49.3709L62.1876 50.1561C68.4184 52.8267 71.9263 55.5491 71.9263 61.6745C71.9263 68.2722 66.743 71.8846 59.7793 71.8846C52.9729 71.8846 48.5747 68.6384 46.4282 64.3972" fill="#203647"/>
</svg>
