<svg width="74" height="76" viewBox="0 0 74 76" fill="none" xmlns="http://www.w3.org/2000/svg">
<path d="M73.7131 45.5095C73.2694 44.1712 72.1071 43.239 70.604 43.0154C69.8952 42.91 69.0835 42.9549 68.123 43.1521C66.4487 43.4961 65.2066 43.6271 64.3001 43.6524C67.7217 37.8992 70.504 31.3384 72.1057 25.1626C74.6957 15.1763 73.3116 10.627 71.6943 8.56922C67.4142 3.12256 61.1696 0.196556 53.636 0.107026C49.6172 0.0580866 46.0892 0.848314 44.2487 1.41659C42.5351 1.11547 40.6927 0.947344 38.7594 0.916253C35.1354 0.858678 31.9335 1.64545 29.1975 3.26247C27.6828 2.75234 25.2518 2.03322 22.4444 1.57434C15.8417 0.494799 10.52 1.33598 6.62752 4.07457C1.91406 7.39036 -0.27096 13.1514 0.133149 21.1976C0.261493 23.7522 1.6964 31.525 3.95571 38.8964C5.25418 43.1334 6.63879 46.6518 8.07109 49.355C10.1023 53.1881 12.2758 55.4454 14.7158 56.2561C16.0833 56.7098 18.5681 57.0276 21.1815 54.8598C21.5128 55.2594 21.9548 55.6564 22.5413 56.0252C23.2862 56.493 24.197 56.8753 25.1067 57.1018C28.385 57.918 31.4557 57.7139 34.0754 56.5698C34.0916 57.0339 34.1041 57.4772 34.1145 57.8601C34.1318 58.4811 34.1492 59.0899 34.172 59.6594C34.3272 63.5094 34.5903 66.5031 35.3696 68.5977C35.4124 68.7129 35.4699 68.8885 35.5306 69.0747C35.9194 70.2602 36.5695 72.2448 38.2235 73.7991C39.9362 75.4092 42.0079 75.9029 43.9053 75.9029C44.8569 75.9029 45.7648 75.7785 46.5612 75.6087C49.3998 75.0027 52.6237 74.0798 54.9559 70.7726C57.1608 67.6463 58.2327 62.9374 58.4266 55.5179C58.4518 55.3081 58.4749 55.1077 58.4972 54.9168L58.5434 54.5247L59.0629 54.5702L59.1967 54.5792C62.0879 54.7104 65.6231 54.0998 67.7943 53.0954C69.5099 52.3026 75.0076 49.412 73.7131 45.5095Z" fill="black"/>
<path d="M68.7697 46.2684C60.173 48.0346 59.5819 45.1359 59.5819 45.1359C68.6584 31.7228 72.4529 14.6968 69.1787 10.5297C60.2455 -0.837162 44.7821 4.53869 44.524 4.67802L44.4411 4.69299C42.7425 4.34178 40.8419 4.13278 38.7055 4.09794C34.8158 4.03461 31.8651 5.11358 29.626 6.80458C29.626 6.80458 2.04079 -4.51309 3.32393 21.0385C3.59681 26.4742 11.1471 62.1686 20.1526 51.3872C23.4441 47.4447 26.6247 44.1114 26.6247 44.1114C28.2041 45.1564 30.0952 45.6895 32.0776 45.4981L32.2316 45.368C32.1836 45.8574 32.2056 46.3361 32.2932 46.9029C29.9732 49.4843 30.6551 49.9375 26.0174 50.8883C21.3244 51.8516 24.0812 53.5662 25.8812 54.0147C28.0633 54.5579 33.1115 55.3277 36.5225 50.5722L36.3866 51.1149C37.2954 51.8401 37.9337 55.8312 37.8267 59.4496C37.7198 63.0676 37.6484 65.5517 38.3644 67.492C39.081 69.4323 39.7947 73.798 45.8916 72.4971C50.9857 71.4098 53.6257 68.5923 53.9931 63.8924C54.2536 60.5513 54.8435 61.0453 54.8805 58.0579L55.3537 56.6439C55.8992 52.1147 55.4405 50.6534 58.5788 51.3331L59.3419 51.3999C61.6515 51.5044 64.6751 51.0297 66.4497 50.2084C70.2705 48.4425 72.5368 45.4938 68.7691 46.2684H68.7697Z" fill="#336791"/>
<path d="M31.2407 23.4694C30.466 23.362 29.7644 23.4613 29.4094 23.729C29.21 23.8796 29.1481 24.054 29.1314 24.1741C29.0869 24.4922 29.3106 24.844 29.4482 25.0253C29.8373 25.5389 30.4056 25.8919 30.9681 25.9696C31.0496 25.9811 31.1308 25.9863 31.2115 25.9863C32.1495 25.9863 33.0025 25.2588 33.0777 24.7219C33.1716 24.0494 32.1914 23.6012 31.2407 23.4696" fill="white"/>
<path d="M56.9048 23.4906C56.8308 22.9635 55.889 22.8132 54.9952 22.937C54.1026 23.0608 53.2371 23.4621 53.3094 23.9903C53.3672 24.4012 54.1121 25.1024 54.9938 25.1024C55.0684 25.1024 55.1435 25.0975 55.2192 25.0869C55.8078 25.0057 56.2396 24.6335 56.4449 24.419C56.7571 24.092 56.938 23.7275 56.9048 23.4906Z" fill="white"/>
<path d="M71.6302 46.0678C71.3025 45.0807 70.2474 44.7631 68.4945 45.1236C63.2899 46.1933 61.4261 45.4523 60.8141 45.0035C64.8595 38.866 68.1875 31.4467 69.9829 24.5247C70.8333 21.2458 71.303 18.2006 71.3415 15.7185C71.384 12.9943 70.918 10.9924 69.9572 9.76947C66.0831 4.83954 60.3973 2.19509 53.5147 2.12254C48.783 2.06957 44.7853 3.2755 44.0103 3.61462C42.3783 3.21044 40.5991 2.96228 38.6621 2.93062C35.1101 2.87333 32.0397 3.72027 29.4977 5.44668C28.3934 5.03731 25.5398 4.06169 22.05 3.50177C16.0166 2.5345 11.2223 3.26744 7.80091 5.6813C3.71848 8.56181 1.83379 13.7108 2.19888 20.9849C2.32173 23.4322 3.72195 30.9608 5.93154 38.1707C8.84009 47.6604 12.0019 53.0325 15.3284 54.1376C15.7178 54.2669 16.1667 54.3573 16.6618 54.3573C17.8753 54.3573 19.3631 53.8126 20.9111 51.9593C22.7991 49.7036 24.7521 47.5027 26.7677 45.3593C28.0755 46.0583 29.5121 46.4487 30.9814 46.4878C30.9843 46.5261 30.9881 46.5644 30.9915 46.6024C30.7386 46.9028 30.4909 47.2075 30.2486 47.5164C29.2306 48.8035 29.0187 49.0715 25.7416 49.7435C24.8094 49.9352 22.3335 50.4433 22.2971 52.1717C22.2578 54.0602 25.2239 54.8533 25.5618 54.9374C26.7394 55.231 27.874 55.3758 28.9559 55.3758C31.5873 55.3758 33.903 54.5145 35.7535 52.8479C35.6966 59.5803 35.9784 66.2141 36.7901 68.2354C37.455 69.8901 39.0789 73.9339 44.2086 73.9336C44.9613 73.9336 45.7898 73.8464 46.7012 73.6518C52.0549 72.5089 54.3799 70.1523 55.2791 64.957C55.7604 62.1804 56.5863 55.5503 56.9748 51.9938C57.7946 52.2486 58.8499 52.3652 59.9909 52.3649C62.3704 52.3649 65.1162 51.8614 66.8382 51.0654C68.7726 50.1707 72.2633 47.9753 71.6302 46.0678ZM58.8809 22.0357C58.8632 23.0856 58.7181 24.0388 58.5643 25.0337C58.3987 26.1037 58.2276 27.21 58.1845 28.553C58.142 29.86 58.3059 31.2187 58.4643 32.5329C58.7846 35.1871 59.1133 37.9197 57.8411 40.616C57.6298 40.2431 57.4415 39.8576 57.2774 39.4619C57.1193 39.0801 56.7759 38.4669 56.3004 37.6183C54.4507 34.3146 50.1191 26.5781 52.3365 23.4213C52.997 22.4816 54.6733 21.5155 58.8809 22.0357ZM53.7806 4.24853C59.9475 4.38412 64.8257 6.68168 68.2794 11.077C70.9284 14.4484 68.0115 29.7886 59.5671 43.0226C59.4822 42.9151 59.3968 42.8079 59.311 42.7011L59.204 42.5681C61.3862 38.9791 60.9595 35.4281 60.5797 32.2799C60.4236 30.9879 60.2762 29.7675 60.3137 28.6212C60.3525 27.4064 60.5138 26.3642 60.6699 25.3567C60.8615 24.115 61.0566 22.8302 61.0029 21.3157C61.043 21.1568 61.0592 20.9691 61.0381 20.7463C60.9008 19.2939 59.2358 14.9473 55.8422 11.0131C53.9859 8.86121 51.2788 6.4531 47.5826 4.82889C49.1724 4.50071 51.3464 4.19469 53.7806 4.24853ZM19.2729 50.6028C17.5675 52.645 16.3898 52.2535 16.0025 52.1251C13.479 51.2868 10.5508 45.9748 7.96915 37.5515C5.73527 30.263 4.42986 22.9339 4.32638 20.8787C4.00032 14.379 5.58236 9.84921 9.02885 7.41491C14.6378 3.45369 23.8595 5.82466 27.565 7.02713C27.5118 7.07953 27.4563 7.12847 27.4037 7.18172C21.323 13.2974 21.4672 23.7463 21.4822 24.3851C21.4817 24.6315 21.5025 24.9804 21.5308 25.4603C21.6354 27.2178 21.8303 30.4887 21.31 34.1928C20.8266 37.635 21.8921 41.004 24.2327 43.4363C24.4729 43.6855 24.7253 43.9226 24.9891 44.1468C23.9474 45.258 21.6831 47.7153 19.2729 50.6028ZM25.7708 41.9684C23.8843 40.008 23.0276 37.2812 23.4198 34.4865C23.969 30.5736 23.7664 27.1657 23.6574 25.3348C23.6421 25.0786 23.6285 24.854 23.6207 24.677C24.509 23.8925 28.6256 21.696 31.5613 22.3659C32.9008 22.6713 33.7171 23.5799 34.0565 25.1425C35.8128 33.2327 34.2889 36.6047 33.0644 39.3145C32.812 39.8727 32.5736 40.4003 32.3701 40.9462L32.2122 41.3682C31.8128 42.4351 31.441 43.4271 31.2106 44.369C29.2051 44.3633 27.2542 43.51 25.7708 41.9681V41.9684ZM26.0786 52.879C25.493 52.7334 24.9663 52.4803 24.6573 52.2705C24.9154 52.1495 25.3748 51.9849 26.1714 51.8214C30.0266 51.0311 30.6221 50.4732 31.9223 48.8292C32.2203 48.452 32.5582 48.0248 33.0262 47.5043L33.0268 47.5038C33.7237 46.7265 34.0426 46.8583 34.6207 47.0973C35.0893 47.2901 35.5457 47.8751 35.7307 48.5188C35.8183 48.8228 35.9166 49.3997 35.5948 49.8488C32.8788 53.6362 28.921 53.5875 26.0786 52.879ZM46.2549 71.5773C41.5386 72.5838 39.8686 70.1872 38.7682 67.4474C38.058 65.6787 37.7088 57.7027 37.9565 48.8945C37.9597 48.7773 37.9429 48.6642 37.9105 48.5577C37.8816 48.3473 37.8375 48.1394 37.7787 47.9353C37.4104 46.6536 36.5129 45.5816 35.4362 45.1371C35.0083 44.9606 34.2232 44.6368 33.2797 44.8772C33.4809 44.0515 33.8298 43.1191 34.2082 42.1095L34.3669 41.6849C34.5456 41.2061 34.7699 40.7101 35.0069 40.185C36.2883 37.35 38.0432 33.4668 36.1386 24.6943C35.4252 21.4084 33.0427 19.8038 29.4312 20.1766C27.2661 20.3997 25.2851 21.2696 24.2971 21.7685C24.0847 21.8756 23.8904 21.9793 23.7089 22.08C23.9847 18.7694 25.0264 12.5823 28.9236 8.66775C31.3774 6.20351 34.6453 4.98636 38.6268 5.052C46.472 5.17981 51.5028 9.18939 54.342 12.5308C56.7886 15.4099 58.1134 18.3103 58.6421 19.8746C54.666 19.4718 51.9619 20.2534 50.5911 22.2053C47.6089 26.4509 52.2226 34.6911 54.44 38.6515C54.8467 39.3772 55.1976 40.0045 55.308 40.2711C56.0301 42.0139 56.965 43.1775 57.6474 44.0268C57.8567 44.287 58.0596 44.5395 58.214 44.76C57.0098 45.1057 54.8467 45.9046 55.0438 49.8978C54.8849 51.9014 53.7543 61.2822 53.18 64.5966C52.4218 68.9752 50.8039 70.606 46.2549 71.5776V71.5773ZM65.9412 49.1412C64.7098 49.7104 62.6491 50.1373 60.6915 50.2291C58.5294 50.3299 57.4286 49.9879 57.1696 49.7774C57.0482 47.289 57.9781 47.029 58.9624 46.7538C59.117 46.7107 59.2679 46.6683 59.4136 46.6177C59.5041 46.6911 59.6032 46.7639 59.7119 46.8353C61.4498 47.9776 64.5494 48.1008 68.9255 47.2012L68.9735 47.1917C68.3832 47.7413 67.3732 48.4788 65.9412 49.1412Z" fill="white"/>
</svg>
