<svg width="77" height="77" viewBox="0 0 77 77" fill="none" xmlns="http://www.w3.org/2000/svg">
<path d="M38.1734 0.0214539C18.6732 0.0214539 19.8907 8.51108 19.8907 8.51108L19.9124 17.3066H38.5211V19.9472H12.5213C12.5213 19.9472 0.0430908 18.5265 0.0430908 38.2793C0.0430908 58.0326 10.9344 57.3321 10.9344 57.3321H17.4343V48.1658C17.4343 48.1658 17.0839 37.2318 28.1517 37.2318H46.6082C46.6082 37.2318 56.9777 37.4 56.9777 27.1707V10.2573C56.9777 10.2573 58.5526 0.0214539 38.1734 0.0214539ZM27.9126 5.93626C28.3523 5.93586 28.7878 6.02252 29.1942 6.19128C29.6005 6.36004 29.9697 6.60758 30.2806 6.91974C30.5916 7.2319 30.8382 7.60255 31.0063 8.01048C31.1743 8.41842 31.2607 8.85562 31.2603 9.29708C31.2607 9.73855 31.1743 10.1758 31.0063 10.5837C30.8382 10.9916 30.5916 11.3623 30.2806 11.6744C29.9697 11.9866 29.6005 12.2341 29.1942 12.4029C28.7878 12.5716 28.3523 12.6583 27.9126 12.6579C27.4728 12.6583 27.0373 12.5716 26.631 12.4029C26.2247 12.2341 25.8555 11.9866 25.5445 11.6744C25.2336 11.3623 24.987 10.9916 24.8189 10.5837C24.6508 10.1758 24.5645 9.73855 24.5649 9.29708C24.5645 8.85562 24.6508 8.41842 24.8189 8.01048C24.987 7.60255 25.2336 7.2319 25.5445 6.91974C25.8555 6.60758 26.2247 6.36004 26.631 6.19128C27.0373 6.02252 27.4728 5.93586 27.9126 5.93626Z" fill="url(#paint0_linear)"/>
<path d="M38.7278 76.7361C58.228 76.7361 57.0105 68.2465 57.0105 68.2465L56.9888 59.4512H38.3798V56.8106H64.3796C64.3796 56.8106 76.8578 58.2313 76.8578 38.478C76.8578 18.7249 65.9665 19.4254 65.9665 19.4254H59.4666V28.5915C59.4666 28.5915 59.8171 39.5255 48.7492 39.5255H30.2927C30.2927 39.5255 19.9232 39.3573 19.9232 49.5868V66.5005C19.9232 66.5005 18.3486 76.7361 38.7275 76.7361H38.7278ZM48.9886 70.8219C48.5489 70.8223 48.1134 70.7356 47.7071 70.5669C47.3007 70.3981 46.9315 70.1506 46.6206 69.8384C46.3096 69.5262 46.063 69.1556 45.895 68.7477C45.7269 68.3397 45.6405 67.9025 45.6409 67.4611C45.6405 67.0196 45.7268 66.5823 45.8949 66.1744C46.0629 65.7664 46.3095 65.3957 46.6205 65.0835C46.9314 64.7713 47.3006 64.5238 47.707 64.355C48.1133 64.1862 48.5489 64.0995 48.9886 64.0999C49.4284 64.0995 49.8639 64.1862 50.2702 64.3549C50.6765 64.5237 51.0457 64.7712 51.3567 65.0834C51.6676 65.3956 51.9142 65.7662 52.0823 66.1741C52.2504 66.5821 52.3367 67.0193 52.3363 67.4607C52.3367 67.9022 52.2504 68.3394 52.0823 68.7473C51.9142 69.1553 51.6676 69.5259 51.3567 69.8381C51.0457 70.1503 50.6765 70.3978 50.2702 70.5666C49.8639 70.7353 49.4284 70.822 48.9886 70.8216V70.8219Z" fill="url(#paint1_linear)"/>
<defs>
<linearGradient id="paint0_linear" x1="7.4249" y1="6.92145" x2="45.6391" y2="44.6067" gradientUnits="userSpaceOnUse">
<stop stop-color="#387EB8"/>
<stop offset="1" stop-color="#366994"/>
</linearGradient>
<linearGradient id="paint1_linear" x1="30.7909" y1="31.217" x2="71.8211" y2="69.8527" gradientUnits="userSpaceOnUse">
<stop stop-color="#FFE052"/>
<stop offset="1" stop-color="#FFC331"/>
</linearGradient>
</defs>
</svg>
