<svg width="85" height="76" viewBox="0 0 85 76" fill="none" xmlns="http://www.w3.org/2000/svg">
<path d="M69.8869 24.6079C68.9823 24.2964 68.0701 24.0077 67.151 23.7423C67.3054 23.1089 67.4475 22.4833 67.5737 21.8686C69.6449 11.7749 68.2909 3.64327 63.666 0.965942C59.2317 -1.60072 51.9798 1.07561 44.6559 7.47461C43.9341 8.10639 43.2283 8.75637 42.5392 9.42394C42.0779 8.98003 41.6084 8.54473 41.131 8.11827C33.4551 1.27628 25.7613 -1.60739 21.1414 1.07761C16.7111 3.65228 15.3993 11.2966 17.264 20.8626C17.4495 21.81 17.659 22.7525 17.8922 23.6893C16.8031 23.9999 15.7522 24.3306 14.7465 24.6826C5.74713 27.8326 0 32.7689 0 37.8893C0 43.1776 6.16981 48.4819 15.543 51.6983C16.303 51.958 17.0692 52.1986 17.841 52.4199C17.5904 53.4288 17.3678 54.4446 17.1737 55.4659C15.396 64.8659 16.7842 72.3296 21.2025 74.8879C25.766 77.5299 33.4253 74.8146 40.883 68.2696C41.4878 67.7375 42.0792 67.1903 42.6567 66.6286C43.403 67.3515 44.1692 68.0533 44.9544 68.7333C52.1787 74.9739 59.3134 77.4939 63.7274 74.9286C68.2865 72.2789 69.7684 64.2609 67.8446 54.5059C67.6931 53.7417 67.5231 52.9813 67.3349 52.2253C67.8728 52.0653 68.4008 51.9006 68.9154 51.7293C78.6599 48.4883 85 43.2483 85 37.8893C85 32.7503 79.0673 27.7806 69.8869 24.6079ZM67.7736 48.2693C67.3087 48.4236 66.8319 48.5726 66.3458 48.7176C65.27 45.2986 63.8184 41.6633 62.0417 37.9069C63.737 34.2403 65.1329 30.6513 66.1785 27.2546C67.0481 27.5073 67.8918 27.7736 68.7052 28.0546C76.5711 30.7733 81.3689 34.7923 81.3689 37.8893C81.3689 41.1879 76.1872 45.4703 67.7736 48.2693ZM64.2826 55.2139C65.1332 59.5273 65.2544 63.4273 64.691 66.4763C64.185 69.2159 63.167 71.0423 61.9079 71.7739C59.2294 73.3306 53.5009 71.3073 47.3228 65.9699C46.5924 65.3377 45.8797 64.6852 45.1855 64.0133C47.5807 61.3836 49.9744 58.3266 52.3105 54.9313C56.4197 54.5653 60.3019 53.9666 63.8224 53.1496C63.9957 53.8519 64.1498 54.5406 64.2826 55.2139ZM28.9784 71.5049C26.3613 72.4326 24.2768 72.4593 23.0167 71.7299C20.3356 70.1776 19.221 64.1846 20.7413 56.1459C20.9221 55.196 21.129 54.2513 21.3619 53.3129C24.8436 54.0863 28.6975 54.6423 32.8163 54.9776C35.1684 58.2999 37.6311 61.3536 40.113 64.0276C39.5856 64.54 39.0456 65.0392 38.4937 65.5249C35.1956 68.4189 31.8909 70.4723 28.9784 71.5049ZM16.7178 48.2489C12.573 46.8266 9.15012 44.9783 6.80398 42.9613C4.69559 41.1489 3.63143 39.3493 3.63143 37.8893C3.63143 34.7819 8.24566 30.8186 15.9418 28.1249C16.8758 27.7983 17.8533 27.4899 18.8677 27.2006C19.9315 30.6739 21.3267 34.3056 23.0104 37.9779C21.3048 41.7046 19.8897 45.3943 18.8155 48.9086C18.111 48.706 17.4115 48.486 16.7178 48.2489ZM20.8277 20.1623C19.2303 11.9666 20.2911 5.78428 22.961 4.23261C25.8045 2.57994 32.0925 4.93627 38.7202 10.8443C39.1523 11.2304 39.5775 11.6244 39.9955 12.0259C37.5258 14.6883 35.0857 17.7193 32.7546 21.0219C28.7569 21.3939 24.9302 21.9913 21.412 22.7916C21.1953 21.9203 21.0004 21.0437 20.8277 20.1626V20.1623ZM57.4929 29.2516C56.6619 27.8106 55.8001 26.3877 54.908 24.9839C57.62 25.3283 60.2185 25.7853 62.6586 26.3439C61.9262 28.7013 61.0131 31.1656 59.9383 33.6923C59.1527 32.1959 58.3374 30.7153 57.4929 29.2516ZM42.5408 14.6313C44.2156 16.4529 45.893 18.4866 47.5429 20.6933C44.196 20.5346 40.8436 20.5339 37.4966 20.6913C39.1481 18.5049 40.8398 16.4739 42.5408 14.6313ZM27.4929 29.2766C26.6589 30.7286 25.8588 32.1998 25.0933 33.6893C24.0361 31.1716 23.1313 28.6959 22.3925 26.3053C24.8177 25.7606 27.4039 25.3153 30.0986 24.9773C29.1966 26.3896 28.3278 27.823 27.4929 29.2763V29.2766ZM30.176 51.0606C27.3919 50.7486 24.7669 50.3263 22.3424 49.7963C23.0928 47.3629 24.0175 44.8346 25.0976 42.2629C25.8662 43.7535 26.6696 45.2257 27.5071 46.6783C28.3684 48.1716 29.2603 49.6343 30.176 51.0606ZM42.6411 61.4039C40.9199 59.5399 39.2033 57.4776 37.5268 55.2596C39.1545 55.3236 40.8136 55.3563 42.5 55.3563C44.2325 55.3563 45.9452 55.3173 47.6309 55.2419C45.9757 57.4999 44.3046 59.5653 42.6411 61.4039ZM59.9725 42.1316C61.1087 44.7316 62.0663 47.2466 62.8266 49.6383C60.3623 50.2029 57.7014 50.6576 54.8977 50.9953C55.7961 49.5655 56.6661 48.1178 57.5071 46.6533C58.3622 45.1646 59.1842 43.657 59.9725 42.1316ZM54.3618 44.8319C53.0743 47.0774 51.7143 49.2802 50.2841 51.4369C47.6935 51.6211 45.0971 51.7126 42.5 51.7113C39.8547 51.7113 37.2818 51.6286 34.8042 51.4673C33.3367 49.3155 31.9508 47.1089 30.6495 44.8519H30.6498C29.3546 42.607 28.1448 40.3134 27.023 37.9763C28.142 35.6386 29.3481 33.3439 30.6388 31.0973L30.6385 31.0976C31.9288 28.8503 33.3036 26.6531 34.76 24.5106C37.2878 24.3186 39.8799 24.2186 42.4997 24.2186H42.5C45.1317 24.2186 47.7272 24.3196 50.2543 24.5129C51.696 26.6522 53.062 28.8419 54.3499 31.0779C55.6449 33.3197 56.867 35.6031 58.0142 37.9246C56.8788 40.2699 55.6606 42.5738 54.3618 44.8319ZM61.8524 4.12394C64.6986 5.77194 65.8056 12.4176 64.0173 21.1326C63.9031 21.6886 63.7749 22.2549 63.6354 22.8293C60.1086 22.0119 56.2793 21.4043 52.27 21.0266C49.9345 17.6876 47.5143 14.6519 45.0849 12.0239C45.7216 11.4078 46.3734 10.8076 47.0399 10.2239C53.3153 4.74161 59.1803 2.57694 61.8524 4.12394ZM42.5 30.2693C46.6919 30.2693 50.0902 33.6809 50.0902 37.8893C50.0902 42.0976 46.6919 45.5093 42.5 45.5093C38.3081 45.5093 34.9098 42.0976 34.9098 37.8893C34.9098 33.6809 38.3081 30.2693 42.5 30.2693Z" fill="#00D8FF"/>
</svg>
