<svg width="82" height="82" viewBox="0 0 82 82" fill="none" xmlns="http://www.w3.org/2000/svg">
<path d="M41.3558 6.14001e-05C25.2179 -0.0279006 10.0286 9.49665 3.05767 24.5729L22.6586 24.6193V26.753C16.623 26.0301 17.1544 29.1497 18.0089 32.4607L30.876 64.5579L40.3333 42.4924L35.9917 32.1515C34.4147 29.3818 34.3814 26.309 27.9297 26.5984L28.0203 24.6322L56.7679 24.7018V26.9051C53.4013 27.1016 49.3486 26.0626 51.4969 32.9246L63.1238 63.3237L69.4797 45.5769C71.561 38.1375 69.6022 30.9883 67.129 23.9777C65.7534 19.2746 66.3949 15.3469 72.5606 13.7888C63.1494 4.22716 52.0447 0.0185934 41.3561 6.14001e-05H41.3558ZM80.454 28.0646L61.8161 76.4191C66.9632 71.982 72.2407 70.367 78.6986 58.0899C82.9954 47.8783 82.553 38.4184 80.454 28.0645V28.0646ZM1.08489 28.8479C-0.734252 43.1229 -0.567835 47.3039 3.93532 58.961C9.80523 70.1256 14.3572 72.4779 20.8178 76.8572L1.0848 28.8479H1.08489ZM42.0833 46.9606L28.2714 80.1297C37.9665 82.884 46.6414 82.5393 54.5828 79.4752L42.0833 46.9605V46.9606Z" fill="#203647"/>
</svg>
