<svg width="86" height="86" viewBox="0 0 86 86" fill="none" xmlns="http://www.w3.org/2000/svg">
<path d="M43 0C19.2533 0 0 19.2533 0 43C0 66.7467 19.2533 86 43 86C66.7467 86 86 66.7467 86 43C86 19.2533 66.7467 0 43 0ZM63.5325 72.3224C63.1527 70.4376 62.6868 68.5742 62.1063 66.7503C65.3206 63.8442 65.188 58.8777 61.8483 56.4196C63.9338 48.1134 64.0342 39.044 61.8412 30.3042C62.5077 29.9065 63.0882 29.3941 63.5432 28.7813C68.7964 30.2577 73.6877 32.6012 78.0629 35.6291C78.5646 38.012 78.8333 40.4738 78.8333 43C78.8333 55.1188 72.7703 65.833 63.5325 72.3224ZM7.16667 43C7.16667 39.9362 7.59667 36.9728 8.32408 34.1312C10.8288 33.9736 13.3157 33.9879 16.0175 34.2459L16.1608 35.0557C12.8606 37.8328 9.89 41.0077 7.24908 44.6376L7.16667 43ZM18.5724 38.7358C21.6111 41.0399 26.0365 40.2982 28.1112 36.98C38.4957 40.7783 47.2427 48.0059 52.9796 57.2832C50.2347 60.0602 50.2706 64.4427 53.0477 66.9402C50.6074 71.3513 47.5007 75.3432 43.8743 78.7903C26.3088 79.2096 11.8967 67.1015 8.15208 51.2094C10.9184 46.4938 14.4408 42.2726 18.5724 38.7358ZM28.9139 31.9239C36.0483 28.4338 43.8027 26.7926 51.5749 26.9897C52.6678 29.1791 54.9074 30.8453 57.5448 31.1678H57.5662C59.5622 38.8971 59.6553 47.1925 57.6702 55.1762L56.8711 55.2586C50.6934 45.1357 40.9862 36.8725 29.0537 32.68L28.9139 31.9239ZM50.6361 77.9948C53.1516 75.0673 55.3338 71.9211 57.1327 68.5814L58.1002 68.5527C58.7165 70.5666 59.2038 72.6342 59.5622 74.7483C56.7779 76.2032 53.7858 77.3068 50.6361 77.9948ZM76.0885 29.2687C72.4729 27.262 68.6495 25.6782 64.6612 24.5709C64.2742 21.0055 60.931 18.0349 57.0682 18.0636C55.0902 14.4122 52.6535 10.9865 49.8155 7.83675C61.7158 10.1372 71.5341 18.3359 76.0885 29.2687ZM52.8972 19.565C51.9762 20.3533 51.3097 21.4104 51.0195 22.6395C42.2188 22.532 33.8983 24.5243 26.4808 28.2474C23.435 25.9612 19.0633 26.7388 16.9993 29.9782C14.3907 29.7058 12.0579 29.6485 9.74667 29.7202C15.0357 16.5227 27.9357 7.16667 43 7.16667H43.0036C46.9345 10.7285 50.2921 14.9067 52.8972 19.565Z" fill="#5590bd"/>
</svg>
