<svg width="86" height="86" viewBox="0 0 86 86" fill="none" xmlns="http://www.w3.org/2000/svg">
<path d="M43 86C66.7467 86 86 66.7467 86 43C86 19.2533 66.7467 0 43 0C19.2533 0 0 19.2533 0 43C0 66.7467 19.2533 86 43 86ZM43 7.16667C62.7585 7.16667 78.8333 23.2415 78.8333 43C78.8333 62.7585 62.7585 78.8333 43 78.8333C23.2415 78.8333 7.16667 62.7585 7.16667 43C7.16667 23.2415 23.2415 7.16667 43 7.16667ZM50.1667 57.3333H35.8333V53.75H50.1667V57.3333ZM50.1667 60.9167V64.5H35.8333V60.9167H50.1667ZM35.8333 39.4167H21.5L43 17.9167L64.5 39.4167H50.1667V50.1667H35.8333V39.4167Z" fill="#203647"/>
</svg>
