<svg width="86" height="86" viewBox="0 0 86 86" fill="none" xmlns="http://www.w3.org/2000/svg">
<g clip-path="url(#clip0)">
<path d="M14.3334 78.2315C30.7702 79.5931 24.8828 62.1315 40.0904 61.9703L46.6766 67.4671C48.3178 87.3116 24.0478 91.7371 14.3334 78.2315ZM64.733 52.736C69.8464 44.713 85.6848 17.8021 85.6848 17.8021C86.9461 15.5697 84.1439 13.2405 82.1874 14.8889C82.1874 14.8889 58.6378 35.364 51.6897 41.8535C46.2 46.9848 46.1749 49.3283 44.3976 57.7885L50.4176 62.8052C58.3977 59.5265 60.6946 59.0821 64.733 52.736ZM21.7366 66.625C24.1231 62.5615 28.0003 55.9575 37.6717 54.9362C39.2268 47.4578 39.8468 43.1112 46.7984 36.6182C51.7183 32.0244 64.4929 20.8193 71.957 14.2976C68.3737 6.38562 57.1184 -0.118127 42.6525 0.000122592C18.9165 0.197206 -0.189825 19.583 9.13887e-05 43.3298C0.0825081 53.7609 3.87367 63.2925 10.1051 70.6885C15.9029 72.2258 18.6191 71.9355 21.7366 66.625ZM46.6479 9.88296C50.5968 9.86146 53.8325 13.0399 53.8719 16.9887C53.8863 20.9411 50.7114 24.1876 46.7554 24.2127C42.7958 24.245 39.5601 21.0594 39.5386 17.1034C39.492 13.1402 42.6776 9.91521 46.6479 9.88296ZM25.1587 17.0532C29.1075 17.0174 32.354 20.1958 32.3683 24.159C32.4113 28.1221 29.215 31.3435 25.2733 31.383C21.3102 31.408 18.0744 28.226 18.0493 24.2593C18.0171 20.3069 21.1919 17.0783 25.1587 17.0532ZM17.9813 38.546C21.9444 38.521 25.1838 41.7065 25.2053 45.659C25.2411 49.615 22.0519 52.8543 18.0888 52.8794C14.1292 52.908 10.9042 49.726 10.8827 45.7665C10.8433 41.8069 14.0324 38.5855 17.9813 38.546ZM53.9257 69.119C54.0009 77.1421 50.7652 82.4419 47.8985 85.5558L47.7337 85.7135C66.5641 83.5957 80.2058 70.2908 70.1868 57.4445C65.2669 64.7796 61.1067 66.195 53.9257 69.119Z" fill="#5590bd"/>
</g>
<defs>
<clipPath id="clip0">
<rect width="86" height="86" fill="white"/>
</clipPath>
</defs>
</svg>
