<svg width="86" height="86" viewBox="0 0 86 86" fill="none" xmlns="http://www.w3.org/2000/svg">
<path d="M15.5588 43.5947L0 28.0323L4.86617 23.1662C4.86617 23.1662 8.77917 25.7999 11.9683 22.6072C15.4406 19.1349 14.405 13.9606 22.102 8.16634C26.6743 4.72275 32.0242 3.58325 37.1054 3.58325C47.1137 3.58325 56.0971 8.00508 56.0971 8.00508C39.861 9.62833 33.7514 16.0676 40.463 22.7792L44.3903 26.7029L31.7232 39.37L27.8819 35.5323C25.8609 33.5113 22.8043 31.243 20.5432 33.5005C18.0385 36.0017 20.425 38.725 20.425 38.725L15.5588 43.5947ZM46.9237 29.2363L34.2567 41.9034L70.7099 79.7936C72.4586 81.5422 74.7519 82.4166 77.0417 82.4166C82.0225 82.4166 86 78.3746 86 73.4582C86 71.0825 85.054 68.8035 83.377 67.1229L46.9237 29.2363ZM34.5935 52.5925L17.9883 68.6602C17.1677 69.4807 16.1859 70.1186 15.1575 70.6597L13.0792 71.7418L9.40625 79.4317L12.3912 82.4166L19.9198 78.5824L20.9983 76.5041C21.5394 75.4792 22.2417 74.5512 23.0552 73.7306L39.5636 57.7597L34.5935 52.5925ZM56.6238 28.9819L70.649 15.1252C71.2546 14.516 72.2364 14.5232 72.8384 15.1252C73.444 15.7343 73.444 16.709 72.842 17.3146L58.7738 31.2143L61.8985 34.4644L76.0276 20.5038C76.6296 19.8982 77.6078 19.9018 78.217 20.5073C78.819 21.1093 78.8226 22.0876 78.217 22.6896L64.0413 36.6968L67.6892 40.488L82.8682 25.4846C84.9572 23.3991 86 20.6614 86 17.9237C86 15.1718 84.9501 12.4162 82.8467 10.3092C80.7504 8.21292 78.0092 7.16658 75.2715 7.16658C72.5267 7.16658 69.789 8.2165 67.6963 10.3092L52.8112 25.0187L56.6238 28.9819Z" fill="#203647"/>
</svg>
