<svg width="58" height="52" viewBox="0 0 58 52" fill="none" xmlns="http://www.w3.org/2000/svg">
<path fill-rule="evenodd" clip-rule="evenodd" d="M29 0C12.9775 0 0 11.635 0 26C0 37.505 8.30125 47.2225 19.8288 50.6675C21.2788 50.895 21.8225 50.115 21.8225 49.4325C21.8225 48.815 21.7863 46.7675 21.7863 44.59C14.5 45.7925 12.615 42.9975 12.035 41.535C11.7088 40.7875 10.295 38.48 9.0625 37.8625C8.0475 37.375 6.5975 36.1725 9.02625 36.14C11.31 36.1075 12.9412 38.025 13.485 38.805C16.095 42.7375 20.2638 41.6325 21.9312 40.95C22.185 39.26 22.9463 38.1225 23.78 37.4725C17.3275 36.8225 10.585 34.58 10.585 24.635C10.585 21.8075 11.7088 19.4675 13.5575 17.6475C13.2675 16.9975 12.2525 14.3325 13.8475 10.7575C13.8475 10.7575 16.2762 10.075 21.8225 13.4225C24.1425 12.8375 26.6075 12.545 29.0725 12.545C31.5375 12.545 34.0025 12.8375 36.3225 13.4225C41.8688 10.0425 44.2975 10.7575 44.2975 10.7575C45.8925 14.3325 44.8775 16.9975 44.5875 17.6475C46.4363 19.4675 47.56 21.775 47.56 24.635C47.56 34.6125 40.7812 36.8225 34.3288 37.4725C35.38 38.285 36.2863 39.845 36.2863 42.2825C36.2863 45.76 36.25 48.555 36.25 49.4325C36.25 50.115 36.7938 50.9275 38.2438 50.6675C44.0007 48.9249 49.0032 45.6076 52.5472 41.1826C56.0912 36.7576 57.9983 31.4476 58 26C58 11.635 45.0225 0 29 0Z" fill="#203647"/>
</svg>
