<svg width="67" height="67" viewBox="0 0 67 67" fill="none" xmlns="http://www.w3.org/2000/svg">
<path d="M33.5 24.7786C28.6975 24.7786 24.7783 28.6978 24.7783 33.5004C24.7783 38.3029 28.6975 42.2222 33.5 42.2222C38.3026 42.2222 42.2218 38.3029 42.2218 33.5004C42.2218 28.6978 38.3026 24.7786 33.5 24.7786ZM59.6588 33.5004C59.6588 29.8887 59.6915 26.3097 59.4887 22.7045C59.2859 18.517 58.3306 14.8006 55.2685 11.7385C52.1998 8.66982 48.49 7.72109 44.3025 7.51825C40.6908 7.31542 37.1117 7.34814 33.5066 7.34814C29.8949 7.34814 26.3159 7.31542 22.7107 7.51825C18.5232 7.72109 14.8068 8.67636 11.7447 11.7385C8.67601 14.8071 7.72728 18.517 7.52445 22.7045C7.32162 26.3162 7.35433 29.8952 7.35433 33.5004C7.35433 37.1056 7.32162 40.6911 7.52445 44.2963C7.72728 48.4838 8.68256 52.2002 11.7447 55.2623C14.8133 58.3309 18.5232 59.2797 22.7107 59.4825C26.3224 59.6853 29.9014 59.6526 33.5066 59.6526C37.1183 59.6526 40.6973 59.6853 44.3025 59.4825C48.49 59.2797 52.2064 58.3244 55.2685 55.2623C58.3371 52.1936 59.2859 48.4838 59.4887 44.2963C59.6981 40.6911 59.6588 37.1121 59.6588 33.5004ZM33.5 46.92C26.0738 46.92 20.0804 40.9266 20.0804 33.5004C20.0804 26.0741 26.0738 20.0808 33.5 20.0808C40.9263 20.0808 46.9197 26.0741 46.9197 33.5004C46.9197 40.9266 40.9263 46.92 33.5 46.92ZM47.4693 22.6652C45.7354 22.6652 44.3352 21.265 44.3352 19.5311C44.3352 17.7973 45.7354 16.3971 47.4693 16.3971C49.2032 16.3971 50.6034 17.7973 50.6034 19.5311C50.6039 19.9429 50.5232 20.3506 50.3658 20.7311C50.2085 21.1116 49.9777 21.4573 49.6866 21.7484C49.3954 22.0396 49.0497 22.2704 48.6692 22.4277C48.2888 22.585 47.881 22.6657 47.4693 22.6652Z" fill="#203647"/>
</svg>
