<svg width="56" height="47" viewBox="0 0 56 47" fill="none" xmlns="http://www.w3.org/2000/svg">
<path d="M55.4359 5.57506C53.3973 6.51717 51.2073 7.15373 48.905 7.44146C51.2805 5.95901 53.0578 3.62582 53.9051 0.87723C51.6732 2.25982 49.2305 3.23301 46.6833 3.75449C44.9703 1.84701 42.7014 0.582695 40.2288 0.157848C37.7563 -0.266999 35.2184 0.171388 33.0092 1.40495C30.8 2.63851 29.0431 4.59822 28.0113 6.97983C26.9795 9.36145 26.7305 12.0317 27.3029 14.576C22.7805 14.3392 18.3565 13.1134 14.3178 10.978C10.2791 8.84256 6.71608 5.84537 3.85996 2.18091C2.88337 3.93782 2.32183 5.97482 2.32183 8.14422C2.32074 10.0972 2.78188 12.0202 3.66434 13.7427C4.5468 15.4653 5.82329 16.934 7.38055 18.0186C5.57454 17.9586 3.80838 17.4497 2.22906 16.5341V16.6869C2.22888 19.426 3.13736 22.0808 4.80037 24.2009C6.46337 26.3209 8.77846 27.7756 11.3528 28.3182C9.67744 28.791 7.92094 28.8607 6.21597 28.5219C6.9423 30.8787 8.35712 32.9397 10.2624 34.4162C12.1676 35.8928 14.4679 36.711 16.8412 36.7564C12.8124 40.0549 7.83683 41.8441 2.71491 41.8362C1.80761 41.8364 0.901087 41.7812 0 41.6707C5.19904 45.1569 11.2511 47.0072 17.4321 47C38.3554 47 49.7937 28.9267 49.7937 13.252C49.7937 12.7427 49.7815 12.2284 49.7595 11.7192C51.9844 10.0411 53.9049 7.96317 55.431 5.5827L55.4359 5.57506Z" fill="#203647"/>
</svg>
